# xmcd
#
# Track frame offsets:
#	150
#	32298
#	64622
#	116704
#	164780
#	185378
#	223697
#	258909
#	276388
#
# Disc length: 3904 seconds
#
# Revision: 0
# Processed by: cddbd v1.5.2PL0 Copyright (c) Steve Scherf et al.
# Submitted via: audiograbber 1.83.01
#
DISCID=830f3e09
DTITLE=Grateful Dead - 92-07-01 Buckeye Lake Music Centre, Hebron OH
DYEAR=1900
DGENRE=
TTITLE0=Truckin'
TTITLE1=Spoonful
TTITLE2=Drums
TTITLE3=Space
TTITLE4=I Need A Miracle
TTITLE5=Wharf Rat
TTITLE6=Turn On Your Lovelight
TTITLE7=Baba O'Riley
TTITLE8=Tomorrow Never Knows
EXTD=
EXTT0=
EXTT1=
EXTT2=
EXTT3=
EXTT4=
EXTT5=
EXTT6=
EXTT7=
EXTT8=
PLAYORDER=
